<svg id="Capa_1" data-name="Capa 1" xmlns="http://www.w3.org/2000/svg" xmlns:xlink="http://www.w3.org/1999/xlink" viewBox="0 0 159.5 283.27"><defs><style>.cls-1{fill:none;}.cls-2{fill:#297d79;}.cls-14,.cls-3{fill:#010101;}.cls-3{stroke:#010101;stroke-miterlimit:10;stroke-width:4px;}.cls-4{fill:#666767;}.cls-5{fill:#fac8a3;}.cls-6{fill:#519e86;}.cls-7{fill:#48b9b0;}.cls-8{fill:#94cfc2;}.cls-9{fill:#8e8e8e;}.cls-10{fill:#bce1e6;}.cls-11{fill:#f8b47a;}.cls-12{clip-path:url(#clip-path);}.cls-13{fill:#7ebbb5;}.cls-15{clip-path:url(#clip-path-2);}.cls-16{fill:#343434;}.cls-17{fill:#5a8580;}.cls-18{fill:#a67550;}</style><clipPath id="clip-path" transform="translate(0 0.07)"><rect class="cls-1" x="42.66" y="-2.18" width="63.67" height="181"/></clipPath><clipPath id="clip-path-2" transform="translate(0 0.07)"><rect class="cls-1" x="-1.39" y="205.75" width="73.23" height="67.68"/></clipPath></defs><title>CONTACTO</title><path class="cls-2" d="M1.22,246.6a10.52,10.52,0,0,0-.31,4.52,12.34,12.34,0,0,0,1.35,4.19,19.4,19.4,0,0,0,5.83,6.46c4.77,3.49,10.41,5.76,16.15,7.56a148.1,148.1,0,0,0,17.68,4.23c6,1.09,12,2,18.13,2.68a190.19,190.19,0,0,0,36.41.74,130.2,130.2,0,0,0,35.83-7.62,78.72,78.72,0,0,1-17,7.95A107.93,107.93,0,0,1,97,281.68a142.68,142.68,0,0,1-37.66.52c-6.21-.76-12.4-1.73-18.54-3.07a117.62,117.62,0,0,1-18.14-5.37C16.79,271.41,11,268.47,6.2,264a20.72,20.72,0,0,1-5.46-8A11.76,11.76,0,0,1,1.22,246.6Z" transform="translate(0 0.07)"/><path class="cls-2" d="M131.6,245.29a14.32,14.32,0,0,1,7,2.57,10.55,10.55,0,0,1,2.8,2.9,8.2,8.2,0,0,1,1.29,4.07,9.33,9.33,0,0,1-.84,4.09,13.41,13.41,0,0,1-2.13,3.3,19.11,19.11,0,0,1-5.93,4.49c1.41-2,2.87-3.91,4-5.88a11.43,11.43,0,0,0,1.88-5.89,8.17,8.17,0,0,0-2.62-5.3A32.55,32.55,0,0,0,131.6,245.29Z" transform="translate(0 0.07)"/><path class="cls-3" d="M141.47,1.93H70.72a16,16,0,0,0-16,16V94.82L31.31,128a28.09,28.09,0,0,0-5.09,16.8l.64,20.9v32.52l-2.67.21-.25,0a10,10,0,0,0-8.51,9.88l-.11,48.35,1.91,1c1.63.84,29.14,14.71,61.87,14.71,14.12,0,29.22-2.58,43.62-9.91a12.66,12.66,0,0,0,6.94-11.34V212.33a9.41,9.41,0,0,0-7.82-9.3q-3.28-.56-5.38-1.1V177c.15-.93-.11-4.37,0-5.36l25,.75a16,16,0,0,0,16-16V18A16,16,0,0,0,141.47,1.93Z" transform="translate(0 0.07)"/><polygon class="cls-4" points="62.96 142.71 79.51 142.71 78.69 145.05 76.59 150.5 62.96 152.5 62.96 142.71"/><path class="cls-5" d="M38.06,132.72l16.63-23.57v47.22c0,.13,0,.26,0,.39a4.08,4.08,0,0,0,4.69,4.54l13.74-2L69.41,169A4.6,4.6,0,1,0,78,172.17L88,143.47l9.5-27.18A8.72,8.72,0,0,1,114.22,120l-3.42,22.66-3.42,21.49.68,11.77-.14,42.44a102,102,0,0,1-72.37-6.16V181.86l.08.05-.08-2.65V165.65h-.42l-.65-21.13A19.74,19.74,0,0,1,38.06,132.72Z" transform="translate(0 0.07)"/><path class="cls-6" d="M26.87,205.19v2.24c-.85-.52-1.69-1.06-2.53-1.6-1.37-.51.78-.5.78-.5Z" transform="translate(0 0.07)"/><path class="cls-7" d="M119.54,256.18c-39.81,20.26-87.21.7-97.21-3.87l.1-40.56a107.7,107.7,0,0,0,100.23,7.65v31.68A5.69,5.69,0,0,1,119.54,256.18Z" transform="translate(0 0.07)"/><path class="cls-8" d="M120.66,209.93a2.42,2.42,0,0,1,2,2.4v.52l-1.4.63q-2.38,1.07-4.8,2v-6.35C117.69,209.39,119.08,209.66,120.66,209.93Z" transform="translate(0 0.07)"/><path class="cls-9" d="M149.24,156.38a7.77,7.77,0,0,1-7.76,7.76H115.22l2.83-21.49h31.19Z" transform="translate(0 0.07)"/><path class="cls-10" d="M149.24,134.39H124.09c-.8,0-3,0-4.82-.16l3.2-13.92c.37-9.78-6.41-15.7-13.3-17.22a16.66,16.66,0,0,0-19.41,10.24L82.4,134.39H63V39.95h86.28Z" transform="translate(0 0.07)"/><path class="cls-9" d="M149.24,31.69H63V18a7.77,7.77,0,0,1,7.76-7.76h70.76A7.77,7.77,0,0,1,149.24,18Z" transform="translate(0 0.07)"/><path class="cls-11" d="M71.23,221.94s-24.8-47.73-16.54-69.51V109.15l-16.23,23s-4.74,5.89-4,12.37l1.07,67.66a170.59,170.59,0,0,0,19.23,7A75.27,75.27,0,0,0,71.23,221.94Z" transform="translate(0 0.07)"/><g class="cls-12"><path class="cls-9" d="M149.47,156.37a7.77,7.77,0,0,1-7.76,7.76H115.45l2.83-21.49h31.19Z" transform="translate(0 0.07)"/><path class="cls-13" d="M149.47,134.38H124.32c-.8,0-3,0-4.82-.16l3.2-13.92c.37-9.78-6.41-15.7-13.3-17.22A16.66,16.66,0,0,0,90,113.32l-7.37,21.06H63.19V39.95h86.28Z" transform="translate(0 0.07)"/><path class="cls-4" d="M149.47,31.69H63.19V18A7.77,7.77,0,0,1,71,10.19h70.76A7.77,7.77,0,0,1,149.47,18Z" transform="translate(0 0.07)"/></g><path class="cls-14" d="M113.95,16.81H98.24a4.13,4.13,0,0,0,0,8.26h15.71a4.13,4.13,0,1,0,0-8.26Z" transform="translate(0 0.07)"/><path class="cls-14" d="M78.16,114.19a4.13,4.13,0,0,0,5.36-2.32A23,23,0,0,1,128,120.35a4.13,4.13,0,1,0,8.26,0,31.3,31.3,0,0,0-60.4-11.52A4.13,4.13,0,0,0,78.16,114.19Z" transform="translate(0 0.07)"/><g class="cls-15"><path class="cls-6" d="M119.54,256.18c-39.81,20.26-87.21.7-97.21-3.87l.1-40.56a107.7,107.7,0,0,0,100.23,7.65v31.68A5.69,5.69,0,0,1,119.54,256.18Z" transform="translate(0 0.07)"/></g><path class="cls-11" d="M61.89,160.94s9.69-.53,7.66,7.71l3.62-9.36Z" transform="translate(0 0.07)"/><polygon class="cls-16" points="62.96 152.5 71.83 142.71 79.51 142.71 76.59 150.5 62.96 152.5"/><path class="cls-17" d="M75.55,134.39l15.79-23.7s-1.83,4-3.67,9.31l-5,14.39Z" transform="translate(0 0.07)"/><path class="cls-18" d="M54.69,149.12s-1.59-23.38-10.81-24.64l10.81-15.32Z" transform="translate(0 0.07)"/></svg>