<svg id="Capa_1" data-name="Capa 1" xmlns="http://www.w3.org/2000/svg" viewBox="0 0 245.76 225.59"><defs><style>.cls-1,.cls-2{fill:#626161;}.cls-1{opacity:0.55;}.cls-2{opacity:0.2;}.cls-3{fill:#fac8a3;}.cls-4{fill:#f8b47a;}.cls-5{fill:#bd8b69;}.cls-6{fill:#010101;}.cls-7{fill:#e6f3f4;}.cls-8{fill:#519e86;}.cls-9{fill:#79a09c;}.cls-10{fill:#94cfc2;}.cls-11{fill:#6a9693;opacity:0.44;}.cls-12{fill:#297d79;}</style></defs><title>PORTAFOLIO</title><path class="cls-1" d="M128.78,205.18l6.1-40.66s7.26-3.93,6.77-9.87c0,0,52-15.54,87.07-3.35,0,0,13.24,1.79,13.24-6.61,0,0-200.6-62.21-239.64-3.66,0,0-6.69,12.73,7.84,13.61l16.41-3.81,8,43.54Z" transform="translate(0.92)"/><path class="cls-2" d="M128.78,205.18l8-35.76s8.66-4.61,8.17-10.55c0,0,48.64-14.79,83.73-2.6,0,0,13.25,1.82,16.12-13.4,0,0-205-66.26-244.06-7.71,0,0-7,24.24,7.5,25.11l16.41-3.81,9.92,38.33Z" transform="translate(0.92)"/><path class="cls-3" d="M42.09,197.8s36.49,18.41,76.79,10.12l1.66-45.23-10.08-9.43L95.92,147l-7.27-7.75L99.8,110.37l4-11.14s-5.42-15.76-18-11.15L67.33,109.65l-9.69,30.29S43.59,138,40,141.39v52.82Z" transform="translate(0.92)"/><path class="cls-4" d="M67.18,206.43l.35-61,10.27-33,14.48-22.7-8.21-2.49L68.45,112.15,57.28,144.88,43,141.6l-.94,56.19S56.15,203.76,67.18,206.43Z" transform="translate(0.92)"/><path class="cls-5" d="M107.16,170.76s1.84-7.21,5.1-7.42c7.23-.46,7.23,17.86,7.23,17.86l1-21.3s-9.32-.54-11.59-8c0,0-3-4.35-8.15-4.07Z" transform="translate(0.92)"/><path class="cls-6" d="M240.18,15.24c-2-.7-4.1-1.34-6.16-1.93V10a2.65,2.65,0,0,0-2-2.56,155.58,155.58,0,0,0-40.23-5.13c-21.37,0-42.76,4.49-60.25,12.62a88,88,0,0,0-9.44,5.22,88.22,88.22,0,0,0-9.44-5.22C95.22,6.8,73.82,2.32,52.45,2.32A155.5,155.5,0,0,0,12.2,7.46,2.64,2.64,0,0,0,10.27,10v3.3c-2.06.59-4.12,1.22-6.16,1.93A2.66,2.66,0,0,0,2.32,17.8V144.7a2.65,2.65,0,0,0,3.52,2.5,135.71,135.71,0,0,1,31.68-6.65L36.83,192q2.59,1.58,5.26,3L43,141.6a6.84,6.84,0,0,1-.33-2.08,56.49,56.49,0,0,1,11.55-.13l-.44,1.3-4.22.6a2.32,2.32,0,1,0,.66,4.59l7-1,12.26-35.94L81.75,91.4a10.32,10.32,0,0,1,14.18-2.65l.62.42a10.28,10.28,0,0,1,3.39,13.2l-9.35,18.25L85.82,136.2l-.52,1.74,1.56.93c.92.55,22.52,13.91,11.46,50.4a2.32,2.32,0,1,0,4.44,1.34c3.48-11.47,5.95-28.18-2-42.77,1.35.5,2.68,1,4,1.54a4.69,4.69,0,0,1,2.33.91,7.44,7.44,0,0,1,1.85,1.62,10.89,10.89,0,0,1,1.25,2.27,5.26,5.26,0,0,1,.23.68,12.65,12.65,0,0,0,10.12,5v45.29q2.81-.67,5.57-1.49V159.9c0-.09,0-.18,0-.27,4.9-.93,8.66-4.28,9.24-8.4,15.38-7.35,35.36-11.38,56.5-11.38,16.72,0,32.84,2.54,46.61,7.33a2.65,2.65,0,0,0,3.52-2.5V17.86A2.65,2.65,0,0,0,240.18,15.24Z" transform="translate(0.92)"/><path class="cls-6" d="M118.22,208.06V162a14.45,14.45,0,0,1-9.71-5.8l-.22-.32-.1-.38a2.8,2.8,0,0,0-.12-.38,8.92,8.92,0,0,0-1-1.79,5.49,5.49,0,0,0-1.29-1.1,4.88,4.88,0,0,0-.6-.35c5.35,13.93,3,28.85-.22,39.41a4.61,4.61,0,0,1-4.44,3.3,4.66,4.66,0,0,1-1.35-.2,4.64,4.64,0,0,1-3.09-5.79c10.53-34.77-9.57-47.22-10.43-47.74L82.56,139l1-3.47,4.92-16,9.35-18.25a8,8,0,0,0-2.63-10.21l-.62-.42a8,8,0,0,0-11,2L71.63,110,59,147l-8.45,1.21a4.63,4.63,0,0,1-5.25-3.94l0-.13-1,54.74L41,197.06c-1.76-.94-3.56-2-5.37-3.09l-1-.62.56-50.23A130.69,130.69,0,0,0,6.6,149.39,5,5,0,0,1,0,144.7V17.8A5,5,0,0,1,3.36,13c1.43-.49,2.94-1,4.6-1.47V10a5,5,0,0,1,3.64-4.79A157.89,157.89,0,0,1,52.45,0c21.7,0,43.45,4.56,61.23,12.84a88.45,88.45,0,0,1,8.46,4.59,88,88,0,0,1,8.46-4.59C148.4,4.56,170.14,0,191.84,0a157.89,157.89,0,0,1,40.84,5.21A5,5,0,0,1,236.34,10v1.57c1.66.5,3.18,1,4.59,1.47a5,5,0,0,1,3.35,4.87V144.69a5,5,0,0,1-6.6,4.69c-13.54-4.71-29.4-7.2-45.86-7.2-20.27,0-39.56,3.78-54.47,10.67-1.08,3.93-4.44,7.16-8.93,8.59v44l-1.66.49c-1.91.57-3.83,1.08-5.68,1.52Zm4.64-48v42.15l.93-.25,0-42.09-.19-2.1,2.07-.39c4-.76,6.94-3.34,7.38-6.44l.17-1.23,1.12-.54c15.66-7.48,36.08-11.6,57.5-11.6,17,0,33.36,2.58,47.38,7.46a.34.34,0,0,0,.3,0,.33.33,0,0,0,.14-.27V17.75a.33.33,0,0,0-.22-.32h0c-1.81-.62-3.79-1.24-6-1.89l-1.68-.48V10a.33.33,0,0,0-.24-.32,153.21,153.21,0,0,0-39.62-5c-21,0-42.08,4.41-59.28,12.41a85.81,85.81,0,0,0-9.18,5.07l-1.24.78-1.24-.78A86.43,86.43,0,0,0,111.72,17C94.54,9,73.49,4.64,52.45,4.64A153.17,153.17,0,0,0,12.81,9.69a.32.32,0,0,0-.22.31v5.05l-1.68.48c-2.25.65-4.23,1.27-6,1.89a.34.34,0,0,0-.22.33V144.7a.33.33,0,0,0,.14.27.31.31,0,0,0,.3,0,137.25,137.25,0,0,1,32.23-6.77l2.57-.24-.71,52.69.67.4L40.7,142a10.22,10.22,0,0,1-.32-2.34l-.09-2.19,2.19-.21a59.9,59.9,0,0,1,12.08-.12l2.8.37,10.09-29.58L79.84,90.08a12.65,12.65,0,0,1,17.38-3.24l.62.42A12.6,12.6,0,0,1,102,103.42l-9.26,18.07L88,136.87h0a31.84,31.84,0,0,1,9.81,10.41l-2-3.74,5.77,2.12c1.38.51,2.61,1,3.73,1.45a7.26,7.26,0,0,1,3.05,1.25,9.66,9.66,0,0,1,2.41,2.15,13.19,13.19,0,0,1,1.53,2.75,5.85,5.85,0,0,1,.21.57,10.55,10.55,0,0,0,8.07,3.73l2.25.06Zm-22.29,29.8,0,.11Zm23.22-29.78h0ZM45.35,141.63h0l0,1.24a4.59,4.59,0,0,1,.39-1.28Z" transform="translate(0.92)"/><path class="cls-7" d="M124.79,24.76a83.46,83.46,0,0,1,9-5c16.8-7.82,37.41-12.13,58-12.13A151.66,151.66,0,0,1,228.71,12V121.33a157.91,157.91,0,0,0-36.88-4.26c-22.61,0-44,4.48-60.41,12.67-2.05,1.13-4.57,2.42-6.63,3.45Z" transform="translate(0.92)"/><path class="cls-8" d="M55.77,134.93a53.59,53.59,0,0,0-12.85-.1v0A154.41,154.41,0,0,0,7.61,141v-3.17a139.4,139.4,0,0,1,35.33-6.44h0c3.53-.23,9.69-.59,14,.13Z" transform="translate(0.92)"/><path class="cls-9" d="M58.75,126.22c-7-1.4-18.6.05-19.11.12h0a144.28,144.28,0,0,0-32,6V19.64c.88-.29,1.76-.52,2.65-.79V124.54a2.65,2.65,0,0,0,3.34,2.77,147.36,147.36,0,0,1,32.72-4.81h0c3.57-.18,9.51-.47,13.61.23Z" transform="translate(0.92)"/><path class="cls-7" d="M94.81,122.55l9.26-18.07a14.92,14.92,0,0,0-4.93-19.16l-.62-.42a15,15,0,0,0-20.58,3.84L65.36,106.83,61.75,117.4c-5.19-1.06-13-.52-16.89-.14a154.66,154.66,0,0,0-29.3,4.08V12A151.69,151.69,0,0,1,52.45,7.62c20.61,0,41.21,4.31,58,12.13a83.75,83.75,0,0,1,9,5V133.19c-2.07-1-4.63-2.34-6.73-3.49a105.11,105.11,0,0,0-18-6.9Z" transform="translate(0.92)"/><path class="cls-10" d="M236.66,141a151.75,151.75,0,0,0-44.83-6.46c-22.61,0-44,4.49-60.31,12.64a2.51,2.51,0,0,0-1.41,2.93c0,2.43-3.1,4.47-6.78,4.47H121c-3.67,0-6.77-2-6.82-4.34a2.65,2.65,0,0,0-1-2.84,2.75,2.75,0,0,0-.49-.28c-1.35-.67-2.74-1.31-4.17-1.94l0,0c-3.27-1.43-8.47-3.17-12.53-4.44A34.26,34.26,0,0,0,91,136.09a120,120,0,0,1,19.31,7c4.33,2.4,10.48,5.27,10.74,5.39a2.64,2.64,0,0,0,2.24,0c.26-.12,6.4-3,10.63-5.32,15.56-7.79,36.13-12.08,57.94-12.08a145,145,0,0,1,44.84,6.76Z" transform="translate(0.92)"/><path class="cls-7" d="M236.66,132.3a151.47,151.47,0,0,0-44.84-6.49c-22.61,0-44,4.49-60.4,12.69-3.09,1.71-7.3,3.74-9.28,4.68-2-.94-6.21-3-9.38-4.75a107.94,107.94,0,0,0-20.48-7.56l.91-3a99.24,99.24,0,0,1,17.1,6.52c4.3,2.36,10.42,5.33,10.68,5.45a2.63,2.63,0,0,0,1.16.26,2.67,2.67,0,0,0,1.16-.26c.26-.12,6.38-3.09,10.59-5.4,15.56-7.78,36.15-12.07,58-12.07a150.21,150.21,0,0,1,38.83,4.94,2.65,2.65,0,0,0,3.35-2.56V18.85c.88.27,1.76.5,2.65.79Z" transform="translate(0.92)"/><path class="cls-6" d="M144.29,71.36a2.66,2.66,0,0,0,.88-.15,144.71,144.71,0,0,1,47.79-8,154,154,0,0,1,18.57,1.09,2.65,2.65,0,0,0,.64-5.26A158.56,158.56,0,0,0,193,58a150.09,150.09,0,0,0-49.56,8.26,2.65,2.65,0,0,0,.89,5.15Z" transform="translate(0.92)"/><path class="cls-6" d="M144.29,103.16a2.65,2.65,0,0,0,.88-.15,144.71,144.71,0,0,1,47.79-8,154,154,0,0,1,18.57,1.09,2.65,2.65,0,0,0,.64-5.26A158.52,158.52,0,0,0,193,89.75,150.08,150.08,0,0,0,143.41,98a2.65,2.65,0,0,0,.89,5.15Z" transform="translate(0.92)"/><path class="cls-6" d="M144.29,87.26a2.66,2.66,0,0,0,.88-.15,144.71,144.71,0,0,1,47.79-8,154,154,0,0,1,18.57,1.09,2.65,2.65,0,0,0,.64-5.26A158.52,158.52,0,0,0,193,73.85a150.08,150.08,0,0,0-49.56,8.26,2.65,2.65,0,0,0,.89,5.15Z" transform="translate(0.92)"/><path class="cls-6" d="M144.29,55.47a2.66,2.66,0,0,0,.88-.15,144.71,144.71,0,0,1,47.79-8,154,154,0,0,1,18.57,1.09,2.65,2.65,0,1,0,.64-5.26A158.52,158.52,0,0,0,193,42.06a150.09,150.09,0,0,0-49.56,8.26,2.65,2.65,0,0,0,.89,5.15Z" transform="translate(0.92)"/><path class="cls-6" d="M144.29,39.57a2.66,2.66,0,0,0,.88-.15,144.71,144.71,0,0,1,47.79-8,154,154,0,0,1,18.57,1.09,2.65,2.65,0,0,0,.64-5.26A158.56,158.56,0,0,0,193,26.16a150.08,150.08,0,0,0-49.56,8.26,2.65,2.65,0,0,0,.89,5.15Z" transform="translate(0.92)"/><path class="cls-8" d="M122.14,148.76v5.84a11.17,11.17,0,0,1-4.86-.73c-2.27-.85-2.6-1.81-2.9-2.53a1.63,1.63,0,0,1-.25-1.07s.13-2.07-1-2.84c0,0-13.68-5.74-17.24-6.67A44.25,44.25,0,0,0,91,136.09s16.6,4.79,22,8.45C112.93,144.54,120.56,148.55,122.14,148.76Z" transform="translate(0.92)"/><path class="cls-9" d="M122.14,143.18v-3.08S100,128.82,93.19,127.87l-.91,3S118.13,141.5,122.14,143.18Z" transform="translate(0.92)"/><path class="cls-11" d="M80.31,86l1.92-75.36S47.13,2.86,15.57,12V121.33s33.9-6.39,46.18-3.93l3.61-10.57Z" transform="translate(0.92)"/><path class="cls-6" d="M102,66.22A150.09,150.09,0,0,0,52.44,58a158.61,158.61,0,0,0-19.21,1.13,2.65,2.65,0,1,0,.64,5.26,154,154,0,0,1,18.57-1.09,144.71,144.71,0,0,1,47.79,8,2.65,2.65,0,0,0,1.77-5Z" transform="translate(0.92)"/><path class="cls-6" d="M102,50.32a150.09,150.09,0,0,0-49.56-8.26A158.52,158.52,0,0,0,33.23,43.2a2.65,2.65,0,1,0,.64,5.25,154,154,0,0,1,18.57-1.09,144.72,144.72,0,0,1,47.79,8,2.65,2.65,0,1,0,1.77-5Z" transform="translate(0.92)"/><path class="cls-6" d="M102,34.43a150.09,150.09,0,0,0-49.56-8.26A158.61,158.61,0,0,0,33.23,27.3a2.65,2.65,0,1,0,.64,5.25,154,154,0,0,1,18.57-1.09,144.71,144.71,0,0,1,47.79,8,2.65,2.65,0,0,0,1.77-5Z" transform="translate(0.92)"/><path class="cls-12" d="M17.59,187.23A9.76,9.76,0,0,0,17,191.4a11.45,11.45,0,0,0,1,4,18,18,0,0,0,5,6.31,51.21,51.21,0,0,0,14.53,7.91,137.41,137.41,0,0,0,16.14,4.91c5.49,1.35,11.05,2.49,16.64,3.5a176.5,176.5,0,0,0,33.69,2.73,120.83,120.83,0,0,0,33.62-5.05,73.06,73.06,0,0,1-16.15,6.41,100.16,100.16,0,0,1-17.23,3,132.4,132.4,0,0,1-34.92-1.63c-5.71-1.05-11.38-2.3-17-3.89a109.14,109.14,0,0,1-16.5-6c-5.31-2.51-10.54-5.56-14.7-10a19.23,19.23,0,0,1-4.61-7.76A10.91,10.91,0,0,1,17.59,187.23Z" transform="translate(0.92)"/><path class="cls-12" d="M137.61,192.81a13.29,13.29,0,0,1,6.53,2.38,9.79,9.79,0,0,1,2.6,2.69,7.61,7.61,0,0,1,1.2,3.78,8.66,8.66,0,0,1-.78,3.8,12.45,12.45,0,0,1-2,3.06,17.73,17.73,0,0,1-5.5,4.17c1.31-1.89,2.66-3.63,3.73-5.45a10.61,10.61,0,0,0,1.75-5.47,7.58,7.58,0,0,0-2.43-4.92A30.21,30.21,0,0,0,137.61,192.81Z" transform="translate(0.92)"/><path class="cls-6" d="M34.61,194.78s18,14.06,56,16.58a153.15,153.15,0,0,0,31.58-4.22c2.7-.66,6-6.57,1.19-5.52-2.88.63-1.11-3.36-4.21-2.61a90.39,90.39,0,0,1-28.57,2.58c-14.61-1.26-32.93-.7-56-17.4Z" transform="translate(0.92)"/></svg>