<svg id="Capa_1" data-name="Capa 1" xmlns="http://www.w3.org/2000/svg" xmlns:xlink="http://www.w3.org/1999/xlink" viewBox="0 0 244.76 217.27"><defs><style>.cls-1{fill:none;}.cls-2{fill:#202121;}.cls-2,.cls-3{opacity:0.55;}.cls-3{fill:#626161;}.cls-4{fill:#fac8a3;}.cls-5{fill:#010101;}.cls-6{fill:#fdfadb;}.cls-7{fill:#94cfc2;}.cls-8{fill:#cae6e0;}.cls-9{clip-path:url(#clip-path);}.cls-10{fill:#f8b47a;}.cls-11{fill:#3ab49b;}.cls-12{fill:#48b9b0;}.cls-13{fill:#297d79;}</style><clipPath id="clip-path"><rect class="cls-1" x="-1.53" y="-2.69" width="112.4" height="217.99" transform="translate(109.34 212.61) rotate(180)"/></clipPath></defs><title>SERVICIO</title><path class="cls-2" d="M244.55,65.19,211.95,89.9l-32.73-4.68-4.29,93.52-124.7,3.51L47.5,88.35l-36.67.31A21.23,21.23,0,0,1,.49,68.78l.37-11.4Z"/><path class="cls-3" d="M242.76,68.13l-31.18,28.6-28-5.12-8,95.81-125.42-.69L40.5,93.19,10.4,91.86A21.23,21.23,0,0,1,.06,72l.37-11.4Z"/><path class="cls-4" d="M58.67,192.06s57,28.12,108.33.61l3.73-38.93H56.52Z"/><path class="cls-5" d="M242.75,61.45c-13.19-7-27.93-15.23-29.73-16.89a3.78,3.78,0,0,0-2.9-1.11c-4.24.24-26.49,3.12-34.58,4.17V15.56A15.57,15.57,0,0,0,160,0h-6.65a15.57,15.57,0,0,0-15.56,15.56v8.22a15.44,15.44,0,0,0-7.53-2H123.6a15.51,15.51,0,0,0-11.16,4.74,15.5,15.5,0,0,0-11.16-4.74H94.64a15.42,15.42,0,0,0-6.76,1.57V15.56A15.57,15.57,0,0,0,72.33,0H65.68A15.58,15.58,0,0,0,50.12,15.56V43H19.35A19,19,0,0,0,.43,61.88v5.3A18.94,18.94,0,0,0,19.35,86.09H50.12V186.73c2.78,1.92,5.63,3.68,8.54,5.33V158.82H81.94A17.41,17.41,0,0,0,97,167.55h31.64a17.41,17.41,0,0,0,15.07-8.73H167v33.85q4.37-2.41,8.55-5.24V82c8.09,1.06,30.34,3.94,34.58,4.18A4.24,4.24,0,0,0,213,85.09c1.79-1.57,16.55-9.84,29.8-17a3.78,3.78,0,0,0,2-3.33h0A3.78,3.78,0,0,0,242.75,61.45Z"/><path class="cls-6" d="M50.12,77.54H19.35A10.38,10.38,0,0,1,9,67.17v-5.3A10.38,10.38,0,0,1,19.35,51.51H50.12Z"/><path class="cls-7" d="M79.6,150.27H58.67V116.51H79.82a17.49,17.49,0,0,0-.22,2.66v31S79.6,150.23,79.6,150.27Z"/><rect class="cls-8" x="88.14" y="110.3" width="49.38" height="48.7" rx="8.87" ry="8.87"/><path class="cls-4" d="M167,108H142a17.37,17.37,0,0,0-13.3-6.2H97a17.38,17.38,0,0,0-13.3,6.2h-25V15.56a7,7,0,0,1,7-7h6.65a7,7,0,0,1,7,7v19.1a15.49,15.49,0,0,0-.26,2.73V60.76h.26v2h8.55v-2h-.26V37.39a7,7,0,0,1,7-7h6.65a7,7,0,0,1,6.83,5.49c0,.5-.08,1-.08,1.53V60.76h8.55V37.39a7,7,0,0,1,7-7h6.65a7,7,0,0,1,7,7V60.76h.51v2h8.55V15.56a7,7,0,0,1,7-7H160a7,7,0,0,1,7,7Z"/><path class="cls-6" d="M209.22,78.46c-5.51-.52-21.71-2.58-32.3-4V55.08c10.57-1.38,26.74-3.44,32.27-4,3.25,2.28,10.23,6.26,16.84,9.9l-13.81,0A6.59,6.59,0,0,0,207,58.54a6.26,6.26,0,1,0,0,12.51,6.59,6.59,0,0,0,5.16-2.47l13.82,0C219.29,72.33,212.41,76.26,209.22,78.46Z"/><g class="cls-9"><path class="cls-10" d="M58.41,192.48s57,28.12,108.33.61l3.73-38.93H56.26Z"/><path class="cls-6" d="M49.87,78H19.09A10.38,10.38,0,0,1,8.72,67.59V62.3A10.38,10.38,0,0,1,19.09,51.93H49.87Z"/><path class="cls-11" d="M79.34,150.69H58.41V116.93H79.56a17.49,17.49,0,0,0-.22,2.66v31S79.34,150.65,79.34,150.69Z"/><rect class="cls-8" x="87.88" y="110.73" width="49.38" height="48.7" rx="8.87" ry="8.87"/><path class="cls-10" d="M166.73,108.38h-25a17.37,17.37,0,0,0-13.3-6.2H96.75a17.38,17.38,0,0,0-13.3,6.2h-25V16a7,7,0,0,1,7-7h6.65a7,7,0,0,1,7,7v19.1a15.49,15.49,0,0,0-.26,2.73V61.19h.26v2h8.55v-2h-.26V37.81a7,7,0,0,1,7-7H101a7,7,0,0,1,6.83,5.49c0,.5-.08,1-.08,1.53V61.19h8.55V37.81a7,7,0,0,1,7-7H130a7,7,0,0,1,7,7V61.19h.51v2h8.55V16a7,7,0,0,1,7-7h6.65a7,7,0,0,1,7,7Z"/><path class="cls-6" d="M209,78.88c-5.51-.52-21.71-2.58-32.3-4V55.5c10.57-1.38,26.74-3.44,32.27-4,3.25,2.28,10.23,6.26,16.84,9.9l-13.81,0A6.59,6.59,0,0,0,206.78,59a6.26,6.26,0,1,0,0,12.51A6.59,6.59,0,0,0,211.95,69l13.82,0C219,72.75,212.15,76.69,209,78.88Z"/><path class="cls-7" d="M166.73,150.69H145.8s0-.09,0-.13v-31a17.49,17.49,0,0,0-.22-2.66h21.15Z"/></g><path class="cls-5" d="M112.84,129.22h4.27v-12h-8.54v12h4.27a5.43,5.43,0,0,0,0,10.87,5.38,5.38,0,0,0,2.69-.74h12.23V130.8H116.66A5.4,5.4,0,0,0,112.84,129.22Z"/><path class="cls-12" d="M167,150.27H146.06s0-.09,0-.13v-31a17.49,17.49,0,0,0-.22-2.66H167Z"/><path class="cls-5" d="M112.62,129.62h4.27v-12h-8.54v12h4.27a5.43,5.43,0,0,0,0,10.87,5.38,5.38,0,0,0,2.69-.74h12.23V131.2H116.45A5.4,5.4,0,0,0,112.62,129.62Z"/><path class="cls-5" d="M242.53,61.85c-13.19-7-27.93-15.23-29.73-16.89a3.78,3.78,0,0,0-2.9-1.11c-4.24.24-26.49,3.12-34.58,4.17V16A15.57,15.57,0,0,0,159.77.4h-6.65A15.57,15.57,0,0,0,137.56,16v8.22a15.44,15.44,0,0,0-7.53-2h-6.65A15.51,15.51,0,0,0,112.23,27a15.5,15.5,0,0,0-11.16-4.74H94.43a15.42,15.42,0,0,0-6.76,1.57V16A15.57,15.57,0,0,0,72.11.4H65.46A15.58,15.58,0,0,0,49.91,16v27.4H19.13A19,19,0,0,0,.21,62.28v5.3A18.94,18.94,0,0,0,19.13,86.49H49.91V187.13c2.78,1.92,5.63,3.68,8.54,5.33V159.22H81.72a17.41,17.41,0,0,0,15.07,8.73h31.64a17.41,17.41,0,0,0,15.07-8.73h23.27v33.56c2.91-1.61,6-3.47,8.76-5.35l-.22-105.07c8.09,1.06,30.34,3.94,34.58,4.18a4.24,4.24,0,0,0,2.84-1.05c1.79-1.57,16.55-9.84,29.8-17a3.78,3.78,0,0,0,2-3.33h0A3.78,3.78,0,0,0,242.53,61.85ZM49.91,77.94H19.13A10.38,10.38,0,0,1,8.76,67.57v-5.3A10.38,10.38,0,0,1,19.13,51.9H49.91Zm29.48,72.73H58.45V116.91H79.61a17.49,17.49,0,0,0-.22,2.66v31S79.39,150.63,79.39,150.67Zm57.92-.13a8.88,8.88,0,0,1-8.87,8.87H96.79a8.88,8.88,0,0,1-8.87-8.87v-31a8.88,8.88,0,0,1,8.87-8.87h31.64a8.88,8.88,0,0,1,8.87,8.87Zm29.47.13H145.84s0-.09,0-.13v-31a17.49,17.49,0,0,0-.22-2.66h21.15Zm0-42.31h-25a17.37,17.37,0,0,0-13.3-6.2H96.79a17.38,17.38,0,0,0-13.3,6.2h-25V16a7,7,0,0,1,7-7h6.65a7,7,0,0,1,7,7v19.1a15.49,15.49,0,0,0-.26,2.73V61.16h.26v2h8.55v-2h-.26V37.79a7,7,0,0,1,7-7h6.65a7,7,0,0,1,6.83,5.49c0,.5-.08,1-.08,1.53V61.16h8.55V37.79a7,7,0,0,1,7-7H130a7,7,0,0,1,7,7V61.16h.51v2h8.55V16a7,7,0,0,1,7-7h6.65a7,7,0,0,1,7,7ZM209,78.86c-5.51-.52-21.71-2.58-32.3-4V55.48c10.57-1.38,26.74-3.44,32.27-4,3.25,2.28,10.23,6.26,16.84,9.9L212,61.4a6.59,6.59,0,0,0-5.17-2.47,6.26,6.26,0,1,0,0,12.51A6.59,6.59,0,0,0,212,69l13.82,0C219.08,72.73,212.19,76.66,209,78.86Z"/><path class="cls-13" d="M37.54,175.92a10.52,10.52,0,0,0-.58,4.49,12.34,12.34,0,0,0,1.1,4.27,19.4,19.4,0,0,0,5.43,6.8c4.55,3.77,10,6.37,15.66,8.53a148.07,148.07,0,0,0,17.4,5.29c5.92,1.45,11.91,2.68,17.93,3.77a190.18,190.18,0,0,0,36.3,2.94A130.2,130.2,0,0,0,167,206.57a78.72,78.72,0,0,1-17.41,6.91A107.91,107.91,0,0,1,131,216.74,142.68,142.68,0,0,1,93.4,215c-6.15-1.13-12.27-2.48-18.32-4.19a117.63,117.63,0,0,1-17.78-6.46c-5.72-2.7-11.36-6-15.84-10.74a20.72,20.72,0,0,1-5-8.36A11.76,11.76,0,0,1,37.54,175.92Z"/><path class="cls-13" d="M183.59,173.92a6.53,6.53,0,0,1,4.93,4.47,11.28,11.28,0,0,1,0,6.91,18.85,18.85,0,0,1-1.28,3.05c-.28.47-.55.93-.84,1.39l-.44.68-.5.62a17.3,17.3,0,0,1-4.77,4.22,21.61,21.61,0,0,1,1-3c.39-.94.69-1.9,1.08-2.79s.66-1.81,1-2.68a12.85,12.85,0,0,0,.46-1.31c.14-.43.34-.86.44-1.3a15.87,15.87,0,0,0,.78-5.07c0-.43-.1-.82-.12-1.27a11.26,11.26,0,0,0-.35-1.28A9.19,9.19,0,0,0,183.59,173.92Z"/><path class="cls-5" d="M49.91,187.13S69.3,202.28,110.28,205c0,0,34.65,3.26,65.26-17.57v-9s-32.89,18.79-65.27,16c-15.74-1.36-35.48-.75-60.37-18.75Z"/></svg>