<svg id="Capa_1" data-name="Capa 1" xmlns="http://www.w3.org/2000/svg" xmlns:xlink="http://www.w3.org/1999/xlink" viewBox="0 0 166.33 278.55"><defs><style>.cls-1{fill:none;}.cls-2{fill:#721821;}.cls-3{fill:#ae282e;}.cls-4{fill:#ffd819;}.cls-5{fill:#ef994a;}.cls-6{fill:#010101;}.cls-7{fill:#ffeaac;}.cls-8{fill:#c93438;}.cls-9{fill:#ffe181;}.cls-10{fill:#d19604;}.cls-11{fill:#ffd840;}.cls-12{clip-path:url(#clip-path);}.cls-13{fill:#a58521;}.cls-14{fill:#8f5829;}.cls-15{fill:#92242c;}.cls-16{opacity:0.45;}.cls-17{fill:#cfeaf7;}.cls-18{fill:#a58931;}</style><clipPath id="clip-path" transform="translate(0 0)"><rect class="cls-1" x="-22.06" y="-21.53" width="102.7" height="321.28"/></clipPath></defs><title>COHETE</title><polygon class="cls-2" points="95.64 110.94 63.76 110.86 63.76 38.32 95.64 38.32 95.64 110.94"/><path class="cls-3" d="M100.11,119.31s16,3.94,19.25,16.62l-.87,14.29s-5-17.94-20.12-13Z" transform="translate(0 0)"/><path class="cls-4" d="M40.56,155.71s5.69,13.86-4,22.81c0,0-8.72-8.18-3.82-23.13Z" transform="translate(0 0)"/><path class="cls-5" d="M38.45,155.57s3.1,7.54-2.15,12.4c0,0-4.74-4.45-2.07-12.57Z" transform="translate(0 0)"/><path class="cls-3" d="M59.81,119.31s-16,3.94-19.25,16.62l.87,14.29s5-17.94,20.12-13Z" transform="translate(0 0)"/><polygon class="cls-5" points="69.28 154.69 60.82 226.88 76.91 241.08 97.74 217.48 89.49 149.32 69.28 154.69"/><circle class="cls-5" cx="113.47" cy="233.6" r="11.98"/><circle class="cls-5" cx="33.78" cy="227.74" r="13.34"/><circle class="cls-5" cx="63.44" cy="233.6" r="13.34"/><circle class="cls-5" cx="128.13" cy="223.9" r="13.34"/><circle class="cls-5" cx="101.5" cy="224.16" r="10.3"/><circle class="cls-5" cx="44.09" cy="234.91" r="10.3"/><path class="cls-6" d="M83.73,139h0a2.22,2.22,0,0,1-2.23,2.18l-4,0a2.22,2.22,0,0,1-2.18-2.23v-.14c.41,0,.79,0,1.2,0l6,.07c.41,0,.83,0,1.24,0V139Z" transform="translate(0 0)"/><path class="cls-6" d="M82.56,133.63l-6-.07A14.2,14.2,0,0,1,63.76,125l31.88.39A14.23,14.23,0,0,1,82.56,133.63Z" transform="translate(0 0)"/><path class="cls-6" d="M97,119.62v.52l-34.33-.42c0-.17,0-.34,0-.52l0-3.37,34.36.42,0,3.37Z" transform="translate(0 0)"/><path class="cls-7" d="M80.54,56.85A12.37,12.37,0,0,0,85.16,56l1.62,2.5a23.47,23.47,0,0,1-12.53-.15l1.68-2.46A12.24,12.24,0,0,0,80.54,56.85Z" transform="translate(0 0)"/><path class="cls-8" d="M79,51.42l1.61-2.32,1.52,2.36a7.91,7.91,0,0,1-1.55.15A11.73,11.73,0,0,1,79,51.42Z" transform="translate(0 0)"/><path class="cls-8" d="M88.17,63.59l-.58,47.34h-5.1l.57-46.46A28.82,28.82,0,0,0,88.17,63.59Z" transform="translate(0 0)"/><path class="cls-8" d="M77.83,64.39l-.52,46.51H72.19l.55-47.49A31.62,31.62,0,0,0,77.83,64.39Z" transform="translate(0 0)"/><path class="cls-9" d="M108.41,86.8a38.53,38.53,0,0,0-11.25,24.14h-4.3l.62-51a2.66,2.66,0,0,0-.43-1.45L82.88,42.93a2.63,2.63,0,0,0-4.37-.05L68,58.17a2.4,2.4,0,0,0-.47,1.44l-.65,51.25H62.59A39.69,39.69,0,0,0,51.91,86.08a39.4,39.4,0,0,1,28.5-66.39H81A39.38,39.38,0,0,1,108.41,86.8Z" transform="translate(0 0)"/><path class="cls-10" d="M90.78,24.7a2.59,2.59,0,0,0-3.26,1.75,2.65,2.65,0,0,0,1.75,3.29,30.74,30.74,0,0,1,21.85,29.68,2.62,2.62,0,0,0,5.23.06A36,36,0,0,0,90.78,24.7Z" transform="translate(0 0)"/><path class="cls-10" d="M82.91,23.3c-.83,0-1.65-.09-2.48-.06a2.67,2.67,0,0,0-2.65,2.62,2.63,2.63,0,0,0,2.59,2.61h0c.69,0,1.41,0,2.13.06h.14a2.64,2.64,0,0,0,2.65-2.45A2.57,2.57,0,0,0,82.91,23.3Z" transform="translate(0 0)"/><path class="cls-11" d="M137.52,57.72l-4.61-.06a2.62,2.62,0,0,0-.06,5.23l4.61.06a2.62,2.62,0,0,0,2.65-2.58A2.57,2.57,0,0,0,137.52,57.72Z" transform="translate(0 0)"/><path class="cls-11" d="M28.13,56.38l-4.61-.06a2.62,2.62,0,0,0-.06,5.23l4.58.06A2.62,2.62,0,0,0,30.68,59,2.57,2.57,0,0,0,28.13,56.38Z" transform="translate(0 0)"/><path class="cls-11" d="M132.52,30.45a2.64,2.64,0,0,0-3.57-1l-4,2.26a2.62,2.62,0,0,0,1.25,4.91,2.57,2.57,0,0,0,1.31-.33l4-2.26A2.62,2.62,0,0,0,132.52,30.45Z" transform="translate(0 0)"/><path class="cls-11" d="M37.09,84a2.61,2.61,0,0,0-3.57-1l-4,2.26a2.62,2.62,0,0,0,1.25,4.91,2.57,2.57,0,0,0,1.31-.33l4-2.26A2.66,2.66,0,0,0,37.09,84Z" transform="translate(0 0)"/><path class="cls-11" d="M111,8.35a2.64,2.64,0,0,0-3.59.92l-2.36,4a2.61,2.61,0,0,0,.92,3.59,2.57,2.57,0,0,0,1.3.36,2.66,2.66,0,0,0,2.29-1.28l2.36-4A2.64,2.64,0,0,0,111,8.35Z" transform="translate(0 0)"/><path class="cls-11" d="M81.23,0a2.65,2.65,0,0,0-2.68,2.62L78.49,7.2a2.63,2.63,0,0,0,5.27.06l.06-4.58A2.62,2.62,0,0,0,81.23,0Z" transform="translate(0 0)"/><path class="cls-11" d="M57.14,12.65l-2.26-4a2.62,2.62,0,0,0-4.58,2.56l2.26,4a2.66,2.66,0,0,0,2.26,1.34,2.57,2.57,0,0,0,1.31-.33A2.61,2.61,0,0,0,57.14,12.65Z" transform="translate(0 0)"/><path class="cls-11" d="M36.78,30.62l-4-2.36a2.62,2.62,0,0,0-2.67,4.51l3.93,2.36a2.57,2.57,0,0,0,1.3.36,2.66,2.66,0,0,0,2.29-1.28A2.57,2.57,0,0,0,36.78,30.62Z" transform="translate(0 0)"/><path class="cls-11" d="M130.87,86.46l-3.93-2.36a2.62,2.62,0,0,0-2.67,4.51l4,2.36a2.57,2.57,0,0,0,1.3.36,2.61,2.61,0,0,0,1.33-4.87Z" transform="translate(0 0)"/><circle class="cls-4" cx="64.75" cy="253.8" r="24.74"/><circle class="cls-4" cx="96.63" cy="244.48" r="20.32"/><circle class="cls-4" cx="129.96" cy="253.07" r="18.16"/><circle class="cls-4" cx="148.12" cy="235.64" r="18.16"/><circle class="cls-4" cx="33.78" cy="249.97" r="13.34"/><circle class="cls-4" cx="18.5" cy="241.08" r="18.5"/><path class="cls-8" d="M56.91,113.31c-.35,10.34-.3,48.83,22.19,48.83,14.94,0,23.11-4.13,23-48.06Z" transform="translate(0 0)"/><path class="cls-11" d="M75.75,161.68s-4.92,34,4.76,50.23c0,0,9.19-12.47,4.76-50.23Z" transform="translate(0 0)"/><path class="cls-11" d="M36.6,121.21A27.13,27.13,0,0,0,33,128.38l7.53-.16A30.71,30.71,0,0,0,36.6,121.21Z" transform="translate(0 0)"/><path class="cls-8" d="M40.63,128.54l-7.77.17c-2,5.86-3.64,15.08-.88,27.41,0,0,5.74-1.27,9.17,0C41.14,156.12,45.79,141.92,40.63,128.54Z" transform="translate(0 0)"/><path class="cls-4" d="M125.06,155.71s5.69,13.86-4,22.81c0,0-8.72-8.18-3.82-23.13Z" transform="translate(0 0)"/><path class="cls-5" d="M123,155.57s3.1,7.54-2.15,12.4c0,0-4.74-4.45-2.07-12.57Z" transform="translate(0 0)"/><path class="cls-11" d="M121.1,121.21a27.13,27.13,0,0,0-3.63,7.17l7.53-.16A30.71,30.71,0,0,0,121.1,121.21Z" transform="translate(0 0)"/><path class="cls-8" d="M125.13,128.54l-7.77.17c-2,5.86-3.64,15.08-.88,27.41,0,0,5.74-1.27,9.17,0C125.65,156.12,130.29,141.92,125.13,128.54Z" transform="translate(0 0)"/><g class="cls-12"><path class="cls-3" d="M100.16,119.21s16,3.94,19.25,16.62l-.87,14.29s-5-17.94-20.12-13Z" transform="translate(0 0)"/><path class="cls-13" d="M40.61,155.61s5.69,13.86-4,22.81c0,0-8.72-8.18-3.82-23.13Z" transform="translate(0 0)"/><path class="cls-14" d="M38.5,155.47s3.1,7.54-2.15,12.4c0,0-4.74-4.45-2.07-12.57Z" transform="translate(0 0)"/><path class="cls-2" d="M59.86,119.21s-16,3.94-19.25,16.62l.87,14.29s5-17.94,20.12-13Z" transform="translate(0 0)"/><polygon class="cls-5" points="69.33 154.59 60.87 226.78 76.96 240.98 97.79 217.38 89.54 149.22 69.33 154.59"/><circle class="cls-5" cx="113.52" cy="233.49" r="11.98"/><circle class="cls-5" cx="33.83" cy="227.64" r="13.34"/><circle class="cls-5" cx="63.48" cy="233.49" r="13.34"/><circle class="cls-5" cx="128.18" cy="223.8" r="13.34"/><circle class="cls-5" cx="101.55" cy="224.06" r="10.3"/><circle class="cls-5" cx="44.14" cy="234.81" r="10.3"/><path class="cls-6" d="M83.78,138.88h0a2.22,2.22,0,0,1-2.23,2.18l-4,0a2.22,2.22,0,0,1-2.18-2.23v-.14c.41,0,.79,0,1.2,0l6,.07c.41,0,.83,0,1.24,0v.14Z" transform="translate(0 0)"/><path class="cls-6" d="M82.61,133.53l-6-.07a14.2,14.2,0,0,1-12.84-8.56l31.88.39A14.23,14.23,0,0,1,82.61,133.53Z" transform="translate(0 0)"/><path class="cls-6" d="M97,119.52V120l-34.33-.42c0-.17,0-.34,0-.52l0-3.37,34.36.42,0,3.37Z" transform="translate(0 0)"/><path class="cls-7" d="M80.59,56.75a12.37,12.37,0,0,0,4.62-.84l1.62,2.5a23.47,23.47,0,0,1-12.53-.15L76,55.79A12.24,12.24,0,0,0,80.59,56.75Z" transform="translate(0 0)"/><path class="cls-8" d="M79.07,51.32,80.68,49l1.52,2.36a7.91,7.91,0,0,1-1.55.15A11.73,11.73,0,0,1,79.07,51.32Z" transform="translate(0 0)"/><path class="cls-8" d="M88.22,63.48l-.58,47.27-5.1-.06.57-46.34A28.82,28.82,0,0,0,88.22,63.48Z" transform="translate(0 0)"/><path class="cls-15" d="M77.88,64.29l-.57,46.61H72.19l.6-47.59A31.62,31.62,0,0,0,77.88,64.29Z" transform="translate(0 0)"/><path class="cls-10" d="M108.41,86.8a38.53,38.53,0,0,0-11.25,24.14l-4.3-.05.62-51a2.66,2.66,0,0,0-.43-1.45L82.88,42.93a2.63,2.63,0,0,0-4.37-.05L68,58.17a2.4,2.4,0,0,0-.47,1.44l-.65,51.25H62.59A39.69,39.69,0,0,0,51.91,86.08a39.4,39.4,0,0,1,28.5-66.39H81A39.38,39.38,0,0,1,108.41,86.8Z" transform="translate(0 0)"/><g class="cls-16"><path class="cls-17" d="M90.83,24.6a2.59,2.59,0,0,0-3.26,1.75,2.65,2.65,0,0,0,1.75,3.29,30.74,30.74,0,0,1,21.85,29.68,2.62,2.62,0,1,0,5.23.06A36,36,0,0,0,90.83,24.6Z" transform="translate(0 0)"/></g><path class="cls-10" d="M83,23.2c-.83,0-1.65-.09-2.48-.06a2.67,2.67,0,0,0-2.65,2.62,2.63,2.63,0,0,0,2.59,2.61h0c.69,0,1.41,0,2.13.06h.14A2.64,2.64,0,0,0,85.37,26,2.57,2.57,0,0,0,83,23.2Z" transform="translate(0 0)"/><path class="cls-11" d="M137.57,57.61,133,57.56a2.62,2.62,0,0,0-.06,5.23l4.61.06a2.62,2.62,0,0,0,2.65-2.58A2.57,2.57,0,0,0,137.57,57.61Z" transform="translate(0 0)"/><path class="cls-13" d="M28.18,56.28l-4.61-.06a2.62,2.62,0,0,0-.06,5.23l4.58.06a2.62,2.62,0,0,0,2.65-2.58A2.57,2.57,0,0,0,28.18,56.28Z" transform="translate(0 0)"/><path class="cls-11" d="M132.56,30.35a2.64,2.64,0,0,0-3.57-1l-4,2.26a2.62,2.62,0,0,0,1.25,4.91,2.57,2.57,0,0,0,1.31-.33l4-2.26A2.62,2.62,0,0,0,132.56,30.35Z" transform="translate(0 0)"/><path class="cls-13" d="M37.14,83.9a2.61,2.61,0,0,0-3.57-1l-4,2.26a2.62,2.62,0,0,0,1.25,4.91,2.57,2.57,0,0,0,1.31-.33l4-2.26A2.66,2.66,0,0,0,37.14,83.9Z" transform="translate(0 0)"/><path class="cls-11" d="M111,8.25a2.64,2.64,0,0,0-3.59.92l-2.36,4a2.61,2.61,0,0,0,.92,3.59,2.57,2.57,0,0,0,1.3.36,2.66,2.66,0,0,0,2.29-1.28l2.36-4A2.64,2.64,0,0,0,111,8.25Z" transform="translate(0 0)"/><path class="cls-13" d="M81,0a2.65,2.65,0,0,0-2.68,2.62L78.29,7.2a2.63,2.63,0,0,0,5.27.06l.06-4.58A2.62,2.62,0,0,0,81,0Z" transform="translate(0 0)"/><path class="cls-13" d="M57.14,12.65l-2.26-4a2.62,2.62,0,0,0-4.58,2.56l2.26,4a2.66,2.66,0,0,0,2.26,1.34,2.57,2.57,0,0,0,1.31-.33A2.61,2.61,0,0,0,57.14,12.65Z" transform="translate(0 0)"/><path class="cls-13" d="M36.83,30.52l-4-2.36a2.62,2.62,0,0,0-2.67,4.51L34.12,35a2.57,2.57,0,0,0,1.3.36,2.66,2.66,0,0,0,2.29-1.28A2.57,2.57,0,0,0,36.83,30.52Z" transform="translate(0 0)"/><path class="cls-11" d="M130.91,86.36,127,84a2.62,2.62,0,0,0-2.67,4.51l4,2.36a2.57,2.57,0,0,0,1.3.36,2.61,2.61,0,0,0,1.33-4.87Z" transform="translate(0 0)"/><circle class="cls-13" cx="64.8" cy="253.7" r="24.74"/><circle class="cls-13" cx="96.68" cy="244.38" r="20.32"/><circle class="cls-4" cx="130.01" cy="252.97" r="18.16"/><circle class="cls-4" cx="148.17" cy="235.54" r="18.16"/><circle class="cls-13" cx="33.83" cy="249.87" r="13.34"/><circle class="cls-13" cx="18.71" cy="240.06" r="18.5"/><path class="cls-15" d="M57,113.21c-.35,10.34-.3,48.83,22.19,48.83,14.94,0,23.11-4.13,23-48.06Z" transform="translate(0 0)"/><path class="cls-13" d="M75.8,161.58s-4.92,34,4.76,50.23c0,0,9.19-12.47,4.76-50.23Z" transform="translate(0 0)"/><path class="cls-18" d="M36.65,121.11A27.13,27.13,0,0,0,33,128.28l7.53-.16A30.71,30.71,0,0,0,36.65,121.11Z" transform="translate(0 0)"/><path class="cls-15" d="M40.67,128.44l-7.77.17c-2,5.86-3.64,15.08-.88,27.41,0,0,5.74-1.27,9.17,0C41.19,156,45.84,141.82,40.67,128.44Z" transform="translate(0 0)"/><path class="cls-4" d="M125.11,155.61s5.69,13.86-4,22.81c0,0-8.72-8.18-3.82-23.13Z" transform="translate(0 0)"/><path class="cls-5" d="M123,155.47s3.1,7.54-2.15,12.4c0,0-4.74-4.45-2.07-12.57Z" transform="translate(0 0)"/><path class="cls-11" d="M121.15,121.11a27.13,27.13,0,0,0-3.63,7.17l7.53-.16A30.71,30.71,0,0,0,121.15,121.11Z" transform="translate(0 0)"/><path class="cls-8" d="M125.18,128.44l-7.77.17c-2,5.86-3.64,15.08-.88,27.41,0,0,5.74-1.27,9.17,0C125.69,156,130.34,141.82,125.18,128.44Z" transform="translate(0 0)"/></g></svg>