<svg id="Capa_1" data-name="Capa 1" xmlns="http://www.w3.org/2000/svg" xmlns:xlink="http://www.w3.org/1999/xlink" viewBox="0 0 204.91 219.98"><defs><style>.cls-1{fill:none;}.cls-2{fill:#d6d7d7;}.cls-3{fill:#a5a4a4;}.cls-4{fill:#d7eceb;}.cls-12,.cls-13,.cls-5{fill:#65938e;}.cls-6{fill:#feeb17;}.cls-7{fill:#fff;}.cls-8{clip-path:url(#clip-path);}.cls-9{clip-path:url(#clip-path-2);}.cls-10{clip-path:url(#clip-path-3);}.cls-11{fill:#717171;}.cls-12{opacity:0.55;}.cls-13{opacity:0.63;}</style><clipPath id="clip-path"><rect class="cls-1" x="83.08" y="-1.26" width="25.99" height="76.1"/></clipPath><clipPath id="clip-path-2"><rect class="cls-1" x="31.12" y="34.32" width="44.37" height="115.03"/></clipPath><clipPath id="clip-path-3"><rect class="cls-1" x="-12.81" y="140.41" width="105.85" height="84.91"/></clipPath></defs><title>WEB</title><path class="cls-2" d="M189.06,87.54,183.6,23.41l-.2-.09L132.8,63.09l22.14,5.5-6,13.74H111.72V64.6h10.87a7.91,7.91,0,0,0,7.9-7.9V7.9a7.91,7.91,0,0,0-7.9-7.9H95a7.91,7.91,0,0,0-7.9,7.9V40.68H52.46A13.15,13.15,0,0,0,39.32,53.81V82.34H24.1A12.77,12.77,0,0,0,11.35,95.09V175h.08L.17,210.83A7.57,7.57,0,0,0,7.57,220H178.51a7.57,7.57,0,0,0,7.33-9.49L172.12,175h.08V95.09A12.76,12.76,0,0,0,165.71,84l4-9Z"/><path class="cls-3" d="M179.88,213.47a1.71,1.71,0,0,1-1.37.68H122.1a1.65,1.65,0,0,0-.05-.44l-4.78-13.83-53.42-.26L58,213.78a1.66,1.66,0,0,0,0,.36H7.57a1.74,1.74,0,0,1-1.7-2.1L16.63,178.6H167L180.19,212A1.71,1.71,0,0,1,179.88,213.47Z"/><path class="cls-4" d="M146.43,88.17l-1.75,4a46.51,46.51,0,0,1-33,25.63V88.17Z"/><rect class="cls-4" x="92.04" y="4.94" width="33.52" height="54.72" rx="2.97" ry="2.97"/><path class="cls-4" d="M45.16,53.81a7.31,7.31,0,0,1,7.3-7.3H87.1V56.69A7.91,7.91,0,0,0,95,64.6h10.87v53.93c-.75,0-1.5.07-2.26.07s-1.6,0-2.61,0l-.65,0v-.06c-3.22,0-6.54-.09-9.75-.18-7.46-.2-14.51-.39-20.79.44a44.56,44.56,0,0,0-21.3,8.79,7.29,7.29,0,0,1-3.36-6.14Z"/><path class="cls-5" d="M17.19,95.09a6.92,6.92,0,0,1,6.92-6.92H39.32v33.34a13.11,13.11,0,0,0,4.69,10c-9.2,9.05-15.22,22.21-16.5,37.62H17.19Z"/><path class="cls-4" d="M166.36,95.09v74.09H43.75c1-8.82,4-16.89,8.72-22.9a29.27,29.27,0,0,1,19.47-11.39c.71-.09,1.44-.17,2.2-.23h19l.81,0v0a31.57,31.57,0,0,0,3.61.16c1.15,0,2.44,0,3.89-.06l2.21,0c40.33-.87,56.56-38.47,56.56-38.47l3.11-6.93A6.91,6.91,0,0,1,166.36,95.09Z"/><path class="cls-6" d="M192.65,23.91l8-5a1.47,1.47,0,0,0-1.56-2.49l-8,5a1.47,1.47,0,1,0,1.56,2.49Z"/><path class="cls-6" d="M185.86,19a1.47,1.47,0,0,0,2-.61l4.42-8.35a1.47,1.47,0,1,0-2.59-1.37L185.25,17a1.47,1.47,0,0,0,.61,2Z"/><path class="cls-6" d="M178.22,16.87a1.47,1.47,0,0,0,2.71-.83l-.34-9.45a1.47,1.47,0,0,0-2.93.11l.34,9.45A1.46,1.46,0,0,0,178.22,16.87Z"/><path class="cls-6" d="M171.27,19a1.47,1.47,0,1,0,2.49-1.56l-5-8A1.47,1.47,0,0,0,166.25,11Z"/><path class="cls-7" d="M201.41,39.82l-8.35-4.43A1.47,1.47,0,1,0,191.69,38L200,42.41a1.47,1.47,0,1,0,1.37-2.59Z"/><path class="cls-6" d="M203.39,27.8l-9.45.34a1.47,1.47,0,1,0,.11,2.93l9.45-.34a1.47,1.47,0,0,0-.11-2.93Z"/><g class="cls-8"><rect class="cls-5" x="92.31" y="4.91" width="33.52" height="54.72" rx="2.97" ry="2.97"/></g><circle class="cls-2" cx="108.8" cy="52.48" r="3.54"/><g class="cls-9"><path class="cls-5" d="M45.12,53.68a7.31,7.31,0,0,1,7.3-7.3H87.07V56.56a7.91,7.91,0,0,0,7.9,7.9h10.87v53.93c-.75,0-1.5.07-2.26.07s-1.6,0-2.61,0l-.65,0v-.06c-3.22,0-6.54-.09-9.75-.18-7.46-.2-14.51-.39-20.79.44a44.56,44.56,0,0,0-21.3,8.79,7.29,7.29,0,0,1-3.36-6.14Z"/></g><circle class="cls-2" cx="75.52" cy="112.64" r="4"/><g class="cls-10"><path class="cls-11" d="M179.88,213.47a1.71,1.71,0,0,1-1.37.68H122.1a1.65,1.65,0,0,0-.05-.44l-4.91-14.21-53.29.43L58,213.78a1.66,1.66,0,0,0,0,.36H7.57a1.74,1.74,0,0,1-1.7-2.1L16.63,178.6H167L180.19,212A1.71,1.71,0,0,1,179.88,213.47Z"/></g><path class="cls-5" d="M93,169.18s-20.28-8.52-18.9-34.53c0,0-25-2.91-30.39,34.53Z"/><path class="cls-12" d="M56.19,168.68l-39,.5V127.65S20.87,164.46,56.19,168.68Z"/><path class="cls-12" d="M144.37,117.83S167.87,98.56,171.12,90a10.85,10.85,0,0,0-5.41-6s-1.12,2.33-2.6,5.8c-.88,2-2.22,5-3.26,7.25-.24.51-.52,1-.71,1.41-.47,1-1.33,2.37-2,3.59A64.38,64.38,0,0,1,144.37,117.83Z"/><polygon class="cls-12" points="105.88 64.6 111.72 64.6 111.72 67.12 95.01 64.6 105.88 64.6"/><path class="cls-12" d="M51.46,146.94s7.84-11.72,22.68-12.29H86.4S61.16,137.75,51.46,146.94Z"/><circle class="cls-6" cx="163.91" cy="173.45" r="1.72"/><circle class="cls-6" cx="158.58" cy="173.45" r="1.72"/><circle class="cls-6" cx="153.46" cy="173.45" r="1.72"/><circle class="cls-6" cx="148.29" cy="173.45" r="1.72"/><path class="cls-12" d="M70.18,168.86H17.32V112.73S22.44,163.16,70.18,168.86Z"/><path class="cls-12" d="M67.09,162.17l-12.76,7-33.41,0,8-60.13S19.36,156.47,67.09,162.17Z"/><path class="cls-13" d="M39.32,89.35V80.28l-28,41.28v47.62H27.51A57.07,57.07,0,0,1,44,131.56s-4.7-2.89-4.69-14.92Z"/></svg>