<svg id="Capa_1" data-name="Capa 1" xmlns="http://www.w3.org/2000/svg" viewBox="0 0 636.25 138.84"><defs><style>.cls-1{fill:#3e9b99;}.cls-2{fill:#010101;}</style></defs><title>LOGO 1.1</title><path class="cls-1" d="M479.45,20.26a20,20,0,0,1,11,3.28l18.89-8a39.69,39.69,0,0,0-4.6-4.68,38.86,38.86,0,0,0-64.17,29.52,39.55,39.55,0,0,0,.21,4.06l18.89-8A20.2,20.2,0,0,1,479.45,20.26Z"/><path class="cls-1" d="M377.54,8.25A30.82,30.82,0,0,0,347.3,2.33V28.38a10.44,10.44,0,0,1,10-7.08,10.63,10.63,0,0,1,10,7.55A31.3,31.3,0,0,1,377.54,8.25Z"/><path class="cls-1" d="M377.91,8.57a30.85,30.85,0,0,0-10.25,21.74v.16a9.76,9.76,0,0,1,.08,1.24V79.87h20.38V31.42c0-.34,0-.67.05-1v-.11A30.9,30.9,0,0,0,377.91,8.57Z"/><path class="cls-1" d="M429.46,30.31A30.91,30.91,0,0,0,378.28,8.25,31.34,31.34,0,0,1,388.5,28.73a10.4,10.4,0,0,1,10-7.43A10.58,10.58,0,0,1,409,31.71V79.87h20.49V30.54h-.05Z"/><path class="cls-1" d="M490.4,24.08,460.11,36.85a19.54,19.54,0,0,0,6.78,18.71l32.19-13.69v-.06c0-.46.05-.93.05-1.39A19.69,19.69,0,0,0,490.4,24.08Z"/><path class="cls-1" d="M448.52,63.89a38.79,38.79,0,0,0,62.21-.39L496.8,50.68a20.13,20.13,0,0,1-30,5.43Z"/><path class="cls-1" d="M459.29,40.43a19.9,19.9,0,0,1,.3-3.35L440.85,45A39.06,39.06,0,0,0,442,50.78a64.27,64.27,0,0,0,6,12.4l.23.31,18.18-7.73A20.13,20.13,0,0,1,459.29,40.43Z"/><path class="cls-1" d="M509.64,16l-18.72,7.9a20.13,20.13,0,0,1,8.69,16.56c0,.35,0,.7,0,1l18.21-7.54a39.51,39.51,0,0,0-1.4-5.54A60.91,60.91,0,0,0,509.64,16Z"/><path class="cls-1" d="M155,47.18A40.44,40.44,0,0,1,135.41,76v7H155Z"/><path class="cls-1" d="M155,41.16A39.89,39.89,0,0,0,135.41,6.87V75.43A39.88,39.88,0,0,0,155,41.16Z"/><path class="cls-1" d="M115.08,81.06a39.67,39.67,0,0,0,19.82-5.32V45.58a20.33,20.33,0,1,1,0-8.85V6.57a39.89,39.89,0,1,0-19.82,74.49Z"/><path class="cls-1" d="M155,35.13V.92H135.41V6.29A40.47,40.47,0,0,1,155,35.13Z"/><path class="cls-1" d="M326.3,26.46A31.29,31.29,0,0,1,346.82,2V1H326.3Z"/><path class="cls-1" d="M326.36,30.31l0,.72c0,.1,0,.19,0,.29a2.9,2.9,0,0,0,0,.3c0,.11,0,.22,0,.33s0,.2,0,.29V79.87h20.5V2.5A30.86,30.86,0,0,0,326.36,30.31Z"/><path class="cls-1" d="M36.31,81.16c1.14.1,2.31.15,3.44.15A39.91,39.91,0,0,0,71.68,65.14l-15-12.48a20.17,20.17,0,0,1-16.91,9.16c-.58,0-1.17,0-1.76-.07A20.29,20.29,0,0,1,19.57,39.82a20.38,20.38,0,0,1,20.15-18.5c.59,0,1.18,0,1.77.07a20.3,20.3,0,0,1,14.14,7.69L68.88,14.63A39.54,39.54,0,0,0,43.17,2c-1.15-.1-2.3-.15-3.46-.15a39.74,39.74,0,0,0-3.4,79.33Z"/><path class="cls-1" d="M309,47.18A40.42,40.42,0,0,1,289.46,76v7H309Z"/><path class="cls-1" d="M309,41.16A39.89,39.89,0,0,0,289.46,6.87V75.43A39.87,39.87,0,0,0,309,41.16Z"/><path class="cls-1" d="M269.13,81.06A39.66,39.66,0,0,0,289,75.74V45.58a20.33,20.33,0,1,1,0-8.85V6.57a39.89,39.89,0,1,0-19.82,74.49Z"/><path class="cls-1" d="M597,.83a39.28,39.28,0,1,0,39.28,39.28A39.33,39.33,0,0,0,597,.83Zm0,59.29a20,20,0,1,1,20-20A20,20,0,0,1,597,60.12Z"/><path class="cls-1" d="M309,35.13V.92H289.46V6.29A40.45,40.45,0,0,1,309,35.13Z"/><path class="cls-1" d="M224.44,8.25A31.6,31.6,0,0,0,203.13,0a30.36,30.36,0,0,0-17.54,5.43A16.71,16.71,0,0,1,189,9.28s5.19,5.22,6,16.73l.41-.54c1.35-1.84,2.51-3.43,6.63-3.6a11.14,11.14,0,0,1,6.36,2.05Z"/><path class="cls-1" d="M194.6,27l0-.25c-.64-11.77-5.89-17.05-5.95-17.11a16.34,16.34,0,0,0-3.48-3.87A30.89,30.89,0,0,0,172.89,27v.82c0,.29,0,.55,0,.72H173v.25l-.26,53.9h21.93l0-55.69Z"/><rect class="cls-1" x="526.38" y="0.5" width="20.52" height="78.9"/><path class="cls-1" d="M184.74,5.4A26.42,26.42,0,0,0,173.44.67h-.55V24.4A31.14,31.14,0,0,1,184.74,5.4Z"/><path class="cls-2" d="M100.62,117.78a14,14,0,0,0-2.8-4.15,13.61,13.61,0,0,0-19.58,0,14.32,14.32,0,0,0-4.07,10,14.16,14.16,0,0,0,4.07,10,13.52,13.52,0,0,0,19.58,0,13.83,13.83,0,0,0,2.8-4.11h.72a14.86,14.86,0,0,1-3.05,4.62,14.23,14.23,0,0,1-20.51,0,15,15,0,0,1,0-20.89,14.23,14.23,0,0,1,20.51,0,14.86,14.86,0,0,1,3.05,4.62Z"/><path class="cls-2" d="M105.19,138.38h-.64V108.72h10.25c11.86,0,11.86,17.33,0,17.33H110l13.64,12.33h-1L109,126v-.64h5.76c11,0,11-16,0-16h-9.62Z"/><path class="cls-2" d="M127.65,137.74h15.76v.64H127V108.76h16.36v.64H127.65v13.81H143v.68H127.65Z"/><path class="cls-2" d="M164,128.42H149l-4,10h-.72l11.91-30.08h.72l11.91,30.08H168Zm-14.7-.64h14.45l-7.25-18.6Z"/><path class="cls-2" d="M175.15,138.38v-29H164.89v-.68H186v.68H175.78v29Z"/><path class="cls-2" d="M200.86,109.35h-6.31v28.39h6.31v.64H187.6v-.64h6.31V109.35H187.6v-.59h13.26Z"/><path class="cls-2" d="M225.91,108.76h.72l-11.91,30.08H214l-11.91-30.08h.72L214.34,138Z"/><path class="cls-2" d="M229.51,137.74h15.76v.64H228.83V108.76h16.36v.64H229.51v13.81h15.34v.68H229.51Z"/><path class="cls-2" d="M273.23,108.76c19.45,0,19.45,29.62,0,29.62h-10V108.76Zm0,29c18.6,0,18.6-28.35,0-28.35h-9.36v28.35Z"/><path class="cls-2" d="M291.54,137.74H307.3v.64H290.86V108.76h16.36v.64H291.54v13.81h15.34v.68H291.54Z"/><path class="cls-2" d="M328.57,114.94a6.64,6.64,0,0,0-1.61-3.22,10,10,0,0,0-7.42-2.71c-2.8,0-6,1.06-7.75,3.39a6.25,6.25,0,0,0-1.31,4.53c.76,10.38,17.37,2.25,19.41,11.74,1.36,6.27-4.58,10-10.21,10-4.32,0-9.58-2.46-10.08-7.25l0-.3.68-.08,0,.3c.47,4.45,5.42,6.7,9.45,6.7,5.17,0,10.76-3.35,9.53-9.24C327.34,120,310.6,128,309.84,117a7,7,0,0,1,1.4-5c4.32-5.59,16.53-4.87,18,2.8l0,.34-.64.13Z"/><path class="cls-2" d="M344.42,109.35H338.1v28.39h6.31v.64H331.15v-.64h6.31V109.35h-6.31v-.59h13.26Z"/><path class="cls-2" d="M371.92,117.61a13.34,13.34,0,0,0-12.58-8.48,13.61,13.61,0,0,0-9.83,4.28,14.86,14.86,0,0,0,0,20.34,13.45,13.45,0,0,0,9.83,4.28c5.93,0,12.25-4.7,13.35-11H359.59v-.68h13.94a10.46,10.46,0,0,1-.72,3c-1.95,5.42-8.18,9.41-13.47,9.41a14.21,14.21,0,0,1-10.3-4.49,15.46,15.46,0,0,1-4.24-10.68A15.62,15.62,0,0,1,349,112.91a14.18,14.18,0,0,1,10.3-4.45,14,14,0,0,1,13.3,9.15Z"/><path class="cls-2" d="M376.19,138.38v-29.7l.59,0,19.7,28.47V108.72h.64v29.66h-.68l-19.58-28.31v28.31Z"/><path class="cls-2" d="M433.95,128.42h-15l-4,10h-.72l11.91-30.08h.72l11.91,30.08H438Zm-14.7-.64h14.45l-7.25-18.6Z"/><path class="cls-2" d="M466.32,117.61a13.34,13.34,0,0,0-12.58-8.48,13.61,13.61,0,0,0-9.83,4.28,14.86,14.86,0,0,0,0,20.34,13.45,13.45,0,0,0,9.83,4.28c5.93,0,12.25-4.7,13.35-11H454v-.68h13.94a10.46,10.46,0,0,1-.72,3c-1.95,5.42-8.18,9.41-13.47,9.41a14.21,14.21,0,0,1-10.3-4.49,15.46,15.46,0,0,1-4.24-10.68,15.62,15.62,0,0,1,4.24-10.68,14.18,14.18,0,0,1,10.3-4.45,14,14,0,0,1,13.3,9.15Z"/><path class="cls-2" d="M471.27,137.74H487v.64H470.59V108.76H487v.64H471.27v13.81h15.34v.68H471.27Z"/><path class="cls-2" d="M490.13,138.38v-29.7l.59,0,19.7,28.47V108.72h.64v29.66h-.68l-19.58-28.31v28.31Z"/><path class="cls-2" d="M540,117.78a14,14,0,0,0-2.8-4.15,13.61,13.61,0,0,0-19.58,0,14.32,14.32,0,0,0-4.07,10,14.16,14.16,0,0,0,4.07,10,13.52,13.52,0,0,0,19.58,0,13.82,13.82,0,0,0,2.8-4.11h.72a14.88,14.88,0,0,1-3.05,4.62,14.23,14.23,0,0,1-20.51,0,15,15,0,0,1,0-20.89,14.23,14.23,0,0,1,20.51,0,14.88,14.88,0,0,1,3.05,4.62Z"/><path class="cls-2" d="M542,108.76l10.42,16.7,10.42-16.7h.81l-10.89,17.37v12.25h-.68V126.13l-10.89-17.37Z"/></svg>